Coordinates
version=1
nRows=22
nColumns=33
inDegrees=yes

Units are S.I. units (second, meters, Newtons, ...)
Angles are in degrees.

endheader
time	ground_thorax_rot_x	ground_thorax_rot_y	ground_thorax_rot_z	ground_thorax_tx	ground_thorax_ty	ground_thorax_tz	clav_prot_r	clav_elev_r	scapula_abduction_r	scapula_elevation_r	scapula_upward_rot_r	scapula_winging_r	shoulder_elv_r	plane_of_elev_r	axial_rot_r	elbow_flexion_r	pro_sup_r	wrist_flex_r	wrist_dev_r	clav_prot_l	clav_elev_l	scapula_abduction_l	scapula_elevation_l	scapula_upward_rot_l	scapula_winging_l	shoulder_elv_l	plane_of_elev_l	axial_rot_l	elbow_flexion_l	pro_sup_l	wrist_flex_l	wrist_dev_l	
12.8300	25.737032	30.763246	44.827742	-70.697919	791.657977	-39.417183	11.969139	34.812865	23.607197	45.000000	-45.000000	2075.965660	-3166.177693	23.179573	180.000000	-354.670885	185.468526	13.229638	13.222697	-9.938883	-45.000000	-38.470675	45.000000	-45.000000	2624.605022	-3329.244659	135.737972	-134.172710	-10.283325	406.144846	11.877944	-16.351934	
12.8400	25.915242	30.511548	44.483941	-72.890630	792.805518	-39.639116	12.068446	34.849643	23.684174	45.000000	-45.000000	2075.820655	-3166.180182	23.197631	180.000000	-354.657195	185.422807	13.272469	13.327957	-10.013872	-45.000000	-38.479481	45.000000	-45.000000	2624.638672	-3329.138851	135.725275	-134.048397	-10.316119	405.992582	11.998669	-16.374320	
12.8500	26.104794	30.245460	44.124207	-75.073088	793.969897	-39.864766	12.201289	34.885613	23.765277	45.000000	-45.000000	2075.678030	-3166.181966	23.223585	180.000000	-354.652876	185.385304	13.319934	13.433245	-10.117719	-45.000000	-38.477028	45.000000	-45.000000	2624.657320	-3329.026544	135.719056	-133.926613	-10.354631	405.842314	12.119565	-16.393047	
12.8600	26.254147	30.004640	43.813798	-77.235527	795.169955	-40.099508	12.253698	34.891157	23.807360	45.000000	-45.000000	2075.550616	-3166.163108	23.247502	180.000000	-354.638106	185.387231	13.365258	13.536572	-10.116022	-45.000000	-38.513444	45.000000	-45.000000	2624.717319	-3328.933294	135.702570	-133.855422	-10.388058	405.693755	12.218023	-16.405793	
12.8700	26.385234	29.771222	43.524526	-79.372616	796.408361	-40.342883	12.271458	34.880520	23.829870	45.000000	-45.000000	2075.432581	-3166.132151	23.275627	180.000000	-354.618347	185.413683	13.411270	13.639031	-10.065175	-45.000000	-38.567942	45.000000	-45.000000	2624.794215	-3328.847675	135.681499	-133.805092	-10.421032	405.548302	12.303238	-16.414316	
12.8800	26.502903	29.541017	43.249327	-81.477508	797.690137	-40.595080	12.263113	34.855442	23.835209	45.000000	-45.000000	2075.323773	-3166.088628	23.310388	180.000000	-354.593622	185.457179	13.457830	13.742049	-9.975086	-45.000000	-38.635213	45.000000	-45.000000	2624.883032	-3328.770090	135.652896	-133.773711	-10.451201	405.406482	12.376854	-16.420890	
12.8900	26.612735	29.313127	42.982142	-83.544558	799.015770	-40.854737	12.246185	34.822917	23.829448	45.000000	-45.000000	2075.219643	-3166.038485	23.349823	180.000000	-354.568856	185.502047	13.506415	13.842048	-9.869698	-45.000000	-38.706981	45.000000	-45.000000	2624.971087	-3328.692883	135.623875	-133.745072	-10.481895	405.269103	12.442018	-16.425384	
12.9000	26.723729	29.082267	42.711993	-85.569260	800.383815	-41.119903	12.237422	34.789124	23.823346	45.000000	-45.000000	2075.115778	-3165.985902	23.393350	180.000000	-354.545533	185.533710	13.557446	13.940814	-9.771737	-45.000000	-38.771307	45.000000	-45.000000	2625.048925	-3328.613760	135.592170	-133.719193	-10.511309	405.135933	12.504528	-16.432264	
12.9100	26.828206	28.857380	42.450645	-87.547683	801.792793	-41.388852	12.231788	34.753714	23.813481	45.000000	-45.000000	2075.010883	-3165.932649	23.433797	180.000000	-354.528502	185.543233	13.611937	14.032673	-9.676853	-45.000000	-38.834694	45.000000	-45.000000	2625.117195	-3328.530468	135.564929	-133.689040	-10.541534	405.006984	12.561884	-16.439179	
12.9200	26.931007	28.635884	42.192827	-89.476840	803.241434	-41.660121	12.228841	34.718012	23.808409	45.000000	-45.000000	2074.901596	-3165.881326	23.471029	180.000000	-354.514770	185.526788	13.669625	14.122699	-9.585960	-45.000000	-38.891055	45.000000	-45.000000	2625.177207	-3328.444312	135.534715	-133.663088	-10.570362	404.881218	12.618564	-16.451461	
12.9300	27.017872	28.429931	41.959874	-91.354447	804.728546	-41.932575	12.231633	34.677901	23.796497	45.000000	-45.000000	2074.792157	-3165.828909	23.495190	180.000000	-354.514266	185.480172	13.732585	14.198953	-9.498153	-45.000000	-38.951954	45.000000	-45.000000	2625.227219	-3328.354835	135.519924	-133.639922	-10.598339	404.757430	12.667047	-16.462257	
12.9400	27.091733	28.237149	41.749025	-93.179196	806.253180	-42.205445	12.235565	34.636853	23.788170	45.000000	-45.000000	2074.678753	-3165.778129	23.507006	180.000000	-354.520730	185.402121	13.799871	14.266822	-9.410265	-45.000000	-39.015998	45.000000	-45.000000	2625.271671	-3328.265137	135.514387	-133.620201	-10.620736	404.632507	12.712485	-16.478199	
12.9500	27.150586	28.056540	41.565005	-94.950423	807.814271	-42.478202	12.240432	34.594912	23.783432	45.000000	-45.000000	2074.563968	-3165.728543	23.506367	180.000000	-354.537164	185.291223	13.873146	14.324153	-9.322242	-45.000000	-39.088554	45.000000	-45.000000	2625.315160	-3328.175897	135.522900	-133.591293	-10.638875	404.503657	12.753268	-16.497086	
12.9600	27.207093	27.879400	41.387410	-96.668276	809.410780	-42.750467	12.242779	34.554241	23.790770	45.000000	-45.000000	2074.444590	-3165.683947	23.503232	180.000000	-354.554712	185.148317	13.950308	14.382391	-9.230719	-45.000000	-39.161634	45.000000	-45.000000	2625.360183	-3328.086753	135.527783	-133.551367	-10.652472	404.367028	12.797753	-16.525510	
12.9700	27.258021	27.706032	41.220449	-98.333180	811.041320	-43.021816	12.245534	34.513878	23.803723	45.000000	-45.000000	2074.326883	-3165.640595	23.499503	180.000000	-354.573769	184.973025	14.031089	14.437029	-9.136619	-45.000000	-39.239471	45.000000	-45.000000	2625.408234	-3327.999131	135.533747	-133.501226	-10.663466	404.219116	12.842714	-16.558838	
12.9800	27.315169	27.528629	41.045014	-99.945745	812.704299	-43.291687	12.244860	34.475803	23.830037	45.000000	-45.000000	2074.208649	-3165.602397	23.504024	180.000000	-354.585326	184.767742	14.112822	14.497795	-9.035795	-45.000000	-39.313769	45.000000	-45.000000	2625.460734	-3327.909816	135.525803	-133.436772	-10.674512	404.056384	12.896227	-16.601699	
12.9900	27.376957	27.346939	40.865159	-101.506023	814.397490	-43.559230	12.244424	34.439607	23.864550	45.000000	-45.000000	2074.093245	-3165.564270	23.518751	180.000000	-354.592798	184.533498	14.195121	14.560596	-8.933153	-45.000000	-39.385341	45.000000	-45.000000	2625.517337	-3327.820795	135.508026	-133.355389	-10.686863	403.876291	12.955216	-16.649798	
13.0000	27.440964	27.169462	40.678727	-103.013700	816.118386	-43.823338	12.245254	34.399870	23.893192	45.000000	-45.000000	2073.980422	-3165.525951	23.542769	180.000000	-354.604031	184.270672	14.277063	14.624294	-8.821695	-45.000000	-39.460284	45.000000	-45.000000	2625.573647	-3327.729613	135.480712	-133.258909	-10.703796	403.676543	13.019966	-16.699504	
13.0100	27.500852	27.001581	40.499831	-104.467721	817.863839	-44.082606	12.249689	34.360536	23.916103	45.000000	-45.000000	2073.868850	-3165.485942	23.569949	180.000000	-354.623438	183.980156	14.359332	14.681107	-8.711172	-45.000000	-39.542562	45.000000	-45.000000	2625.629182	-3327.640121	135.456764	-133.146377	-10.723033	403.455867	13.086066	-16.747760	
13.0200	27.558030	26.844158	40.325317	-105.866739	819.630400	-44.335421	12.255528	34.319507	23.937162	45.000000	-45.000000	2073.757034	-3165.448937	23.596501	180.000000	-354.652394	183.665510	14.442126	14.733241	-8.597653	-45.000000	-39.630836	45.000000	-45.000000	2625.683746	-3327.548366	135.435051	-133.015722	-10.747129	403.214542	13.156347	-16.795375	
13.0300	27.617127	26.691368	40.155741	-107.208888	821.413850	-44.579939	12.260806	34.283138	23.971354	45.000000	-45.000000	2073.639676	-3165.416665	23.622030	180.000000	-354.687875	183.331734	14.525998	14.782317	-8.488897	-45.000000	-39.714328	45.000000	-45.000000	2625.738978	-3327.455510	135.412751	-132.864949	-10.774175	402.953681	13.232622	-16.845445	
13.0400	27.677555	26.545473	39.986435	-108.492469	823.209702	-44.814227	12.266026	34.245855	24.011321	45.000000	-45.000000	2073.520341	-3165.388767	23.645468	180.000000	-354.731515	182.983064	14.610020	14.829239	-8.379812	-45.000000	-39.794318	45.000000	-45.000000	2625.792718	-3327.359981	135.385896	-132.701022	-10.805563	402.674186	13.314451	-16.896351	
